{
	"asset":{
		"generator":"Khronos glTF Blender I/O v4.0.44",
		"version":"2.0"
	},
	"scene":0,
	"scenes":[
		{
			"name":"Scene",
			"nodes":[
				0,
				1
			]
		}
	],
	"nodes":[
		{
			"name":"boat",
			"rotation":[
				0,
				-0.17350275814533234,
				0,
				0.9848334789276123
			],
			"translation":[
				145.08645629882812,
				2.030686855316162,
				63.19755554199219
			]
		},
		{
			"mesh":0,
			"name":"PROTEUS NEW LOGOS.001",
			"rotation":[
				0.36555448174476624,
				-0.6312605142593384,
				0.5219016671180725,
				0.44215255975723267
			],
			"scale":[
				0.0447758249938488,
				0.044775836169719696,
				0.0447758324444294
			],
			"translation":[
				151.45547485351562,
				3.6950201988220215,
				65.51356506347656
			]
		}
	],
	"materials":[
		{
			"alphaMode":"BLEND",
			"doubleSided":true,
			"name":"PROTEUS NEW LOGOS.001",
			"pbrMetallicRoughness":{
				"baseColorTexture":{
					"index":0
				},
				"metallicFactor":0,
				"roughnessFactor":0.5
			}
		}
	],
	"meshes":[
		{
			"name":"PROTEUS NEW LOGOS.001",
			"primitives":[
				{
					"attributes":{
						"POSITION":0,
						"NORMAL":1,
						"TEXCOORD_0":2
					},
					"indices":3,
					"material":0
				}
			]
		}
	],
	"textures":[
		{
			"sampler":0,
			"source":0
		}
	],
	"images":[
		{
			"mimeType":"image/png",
			"name":"PROTEUS NEW LOGOS",
			"uri":"PROTEUS%20NEW%20LOGOS.png"
		}
	],
	"accessors":[
		{
			"bufferView":0,
			"componentType":5126,
			"count":4,
			"max":[
				1.3518224954605103,
				0,
				0.5
			],
			"min":[
				-1.3518224954605103,
				0,
				-0.5
			],
			"type":"VEC3"
		},
		{
			"bufferView":1,
			"componentType":5126,
			"count":4,
			"type":"VEC3"
		},
		{
			"bufferView":2,
			"componentType":5126,
			"count":4,
			"type":"VEC2"
		},
		{
			"bufferView":3,
			"componentType":5123,
			"count":6,
			"type":"SCALAR"
		}
	],
	"bufferViews":[
		{
			"buffer":0,
			"byteLength":48,
			"byteOffset":0,
			"target":34962
		},
		{
			"buffer":0,
			"byteLength":48,
			"byteOffset":48,
			"target":34962
		},
		{
			"buffer":0,
			"byteLength":32,
			"byteOffset":96,
			"target":34962
		},
		{
			"buffer":0,
			"byteLength":12,
			"byteOffset":128,
			"target":34963
		}
	],
	"samplers":[
		{
			"magFilter":9729,
			"minFilter":9987,
			"wrapS":33071,
			"wrapT":33071
		}
	],
	"buffers":[
		{
			"byteLength":140,
			"uri":"Proteusboat_baked.bin"
		}
	]
}
